<svg xmlns="http://www.w3.org/2000/svg" width="200" height="200" viewBox="0 0 200 200">
  <defs>
    <linearGradient id="bg" x1="0" y1="0" x2="0" y2="200" gradientUnits="userSpaceOnUse">
      <stop offset="0" stop-color="#1a1a2e"/>
      <stop offset="1" stop-color="#0f0f1a"/>
    </linearGradient>
    <linearGradient id="book" x1="0" y1="0" x2="0" y2="200" gradientUnits="userSpaceOnUse">
      <stop offset="0" stop-color="#3B82F6"/>
      <stop offset="1" stop-color="#1D4ED8"/>
    </linearGradient>
    <linearGradient id="lock" x1="0" y1="0" x2="0" y2="1">
      <stop offset="0" stop-color="#06B6D4"/>
      <stop offset="1" stop-color="#0891B2"/>
    </linearGradient>
  </defs>
  <rect width="200" height="200" rx="40" fill="url(#bg)"/>
  <path d="M40 140 Q40 60 100 50 Q160 60 160 140 L160 160 Q100 150 40 160 Z" fill="url(#book)" opacity="0.3" stroke="#3B82F6" stroke-width="2"/>
  <line x1="100" y1="50" x2="100" y2="155" stroke="#60A5FA" stroke-width="2" opacity="0.8"/>
  <path d="M52 125 L52 75 Q75 65 98 60 L98 145 Q75 140 52 148 Z" fill="url(#book)" opacity="0.7"/>
  <path d="M148 125 L148 75 Q125 65 102 60 L102 145 Q125 140 148 148 Z" fill="url(#book)" opacity="0.7"/>
  <path d="M80 110 L80 85 Q80 65 100 65 Q120 65 120 85 L120 110" fill="none" stroke="#06B6D4" stroke-width="8" stroke-linecap="round"/>
  <rect x="72" y="105" width="56" height="35" rx="6" fill="url(#lock)"/>
  <circle cx="100" cy="120" r="6" fill="#0f0f1a"/>
  <rect x="98" y="120" width="4" height="10" rx="1" fill="#0f0f1a"/>
  <circle cx="100" cy="40" r="3" fill="#60A5FA" opacity="0.8"/>
</svg>